<?xml version="1.0" encoding="UTF-8"?>
<svg id="Layer_1" data-name="Layer 1" xmlns="http://www.w3.org/2000/svg" viewBox="0 0 375 375">
  <g>
    <path d="M133.86,202.62v1.17h1.03c-.34-.4-.69-.8-1.03-1.17Z"/>
    <path d="M164.77,115.58c0,25.75-20.55,38.72-42.7,47.55h-23.63c22.33-10.79,47.92-22.73,47.92-47.12,0-26.52-25.67-36.81-51.79-36.81-13.9,0-26.31,2.15-38.74,5.99v77.94h-18.17v-23.15c0-42.17-1.3-57.36-19.7-57.36v-2.12h24.82c18.83,0,45.37-4.3,64.2-4.3,30.18,0,57.79,9.41,57.79,39.38Z"/>
    <path d="M178.27,236.93c0,37.02-25.48,61.84-71.07,61.84-24.82,0-40.02-4.27-63.57-4.27h-25.67v-2.15c18.4,0,19.7-15.2,19.7-57.33v-12.36h18.17v66.27c13.07,4.72,23.34,6.87,39.17,6.87,39.81,0,64.87-21.85,64.87-57.36,0-5.3-.61-10.63-1.86-15.78h18.4c1.22,4.46,1.86,9.2,1.86,14.27Z"/>
    <path d="M355.19,222.66h-18.38c1.22,5.14,1.83,10.5,1.83,15.78,0,35.54-25.03,57.36-64.84,57.36-15.83,0-26.09-2.15-39.17-6.84v-66.3h-18.19v12.36c0,42.17-1.27,57.36-19.68,57.36v2.12h25.67c23.55,0,38.74,4.3,63.57,4.3,45.59,0,71.04-24.82,71.04-61.87,0-5.04-.64-9.81-1.86-14.27ZM216.44,140v23.12h18.19v-77.91c12.41-3.87,24.82-5.99,38.74-5.99,26.12,0,51.79,10.26,51.79,36.81,0,24.4-25.62,36.3-47.95,47.1h23.66c22.14-8.83,42.7-21.8,42.7-47.55,0-29.94-27.61-39.35-57.79-39.35-18.83,0-45.37,4.27-64.2,4.27h-24.82v2.15c18.4,0,19.68,15.2,19.68,57.36Z"/>
  </g>
  <g>
    <g>
      <polygon points="42.62 204.17 36.18 189.62 34.8 186.47 34.8 186.45 31.84 179.79 35.36 179.79 36.92 183.35 43.6 198.44 44.17 199.73 44.85 198.2 45.91 195.79 53.01 179.79 56.38 179.79 49.6 195.11 48.35 197.9 45.57 204.17 42.62 204.17"/>
      <path d="M55.8,180.16l-6.55,14.8-1.25,2.78-2.68,6.05h-2.47l-2.31-5.22-1.14-2.57-2.89-6.52-1.35-3.08v-.03l-2.76-6.21h2.71l1.46,3.34,1.22,2.76,4.53,10.24.93,2.1.9,2.07,1.03-2.31,1.06-2.41,7-15.78h2.55M56.95,179.41h-4.19l-.2.45-7,15.78-1.06,2.42-.34.75-.22-.51-.93-2.1-4.53-10.24-1.22-2.76-1.46-3.34-.2-.45h-4.35l.47,1.05,2.7,6.07.06.16,1.35,3.08,2.89,6.53,1.14,2.57,2.31,5.22.2.45h3.44l.2-.45,2.68-6.05,1.25-2.78,6.55-14.8.47-1.05h0Z"/>
    </g>
    <g>
      <polygon points="70.08 204.15 70.08 179.78 87.03 179.78 87.03 182.69 73.33 182.69 73.33 190.34 85.54 190.34 85.54 193.22 73.33 193.22 73.33 201.25 87.53 201.25 87.53 204.15 70.08 204.15"/>
      <path d="M86.65,180.16v2.16h-13.7v8.4h12.22v2.13h-12.22v8.77h14.21v2.16h-16.71v-23.62h16.2M87.4,179.41h-17.7v25.12h18.21v-3.66h-14.21v-7.27h12.22v-3.63h-12.22v-6.9h13.7v-3.66h0Z"/>
    </g>
    <g>
      <polygon points="107.99 204.17 107.99 182.69 99.69 182.69 99.69 179.79 119.53 179.79 119.53 182.69 111.23 182.69 111.23 204.17 107.99 204.17"/>
      <path d="M119.16,180.16v2.15h-8.3v21.48h-2.49v-21.48h-8.3v-2.15h19.09M119.91,179.41h-20.59v3.65h8.3v21.48h3.99v-21.48h8.3v-3.65h0Z"/>
    </g>
    <g>
      <polygon points="133.5 204.17 133.5 179.79 150.45 179.79 150.45 182.69 136.77 182.69 136.77 190.34 148.97 190.34 148.97 193.21 136.77 193.21 136.77 201.24 150.96 201.24 150.96 204.17 133.5 204.17"/>
      <path d="M150.08,180.16v2.15h-13.68v8.41h12.2v2.12h-12.2v8.78h14.19v2.17h-16.71v-23.63h16.2M150.83,179.41h-17.7v25.13h18.21v-3.67h-14.19v-7.28h12.2v-3.62h-12.2v-6.91h13.68v-3.65h0Z"/>
    </g>
    <g>
      <path d="M183.14,204.15l-5.38-7.57c-.56.05-1.11.08-1.71.08h-5.97v7.49h-3.25v-24.37h9.22c6.18,0,10.03,3.25,10.03,8.48,0,3.66-1.83,6.35-5.18,7.61l5.9,8.29h-3.65ZM175.98,193.79c4.42,0,6.85-1.96,6.85-5.53s-2.37-5.57-6.85-5.57h-5.9v11.1h5.9Z"/>
      <path d="M176.05,180.16c6.01,0,9.65,3.04,9.65,8.1,0,3.71-1.96,6.31-5.4,7.42l5.77,8.1h-2.73l-5.4-7.59c-.61.07-1.21.1-1.89.1h-6.34v7.49h-2.5v-23.62h8.84M169.7,194.16h6.28c4.73,0,7.22-2.19,7.22-5.9s-2.5-5.94-7.22-5.94h-6.28v11.85M176.05,179.41h-9.59v25.12h4v-7.49h5.59c.54,0,1.03-.02,1.53-.06l5.15,7.24.22.32h4.58l-.84-1.19-5.21-7.31c3.22-1.38,4.97-4.11,4.97-7.78,0-5.46-3.99-8.85-10.4-8.85h0ZM170.45,183.07h5.53c2.95,0,6.47.9,6.47,5.19s-3.52,5.15-6.47,5.15h-5.53v-10.35h0Z"/>
    </g>
    <g>
      <rect x="201.98" y="179.78" width="3.25" height="24.37"/>
      <path d="M204.85,180.16v23.62h-2.5v-23.62h2.5M205.6,179.41h-4v25.12h4v-25.12h0Z"/>
    </g>
    <g>
      <polygon points="240.78 204.15 226.15 185.69 226.15 204.15 222.91 204.15 222.91 179.78 225.52 179.78 240.18 198.25 240.18 179.78 243.4 179.78 243.4 204.15 240.78 204.15"/>
      <path d="M243.02,180.16v23.62h-2.06l-15.19-19.17v19.17h-2.5v-23.62h2.06l15.22,19.17v-19.17h2.46M243.77,179.41h-3.96v17.77l-13.89-17.49-.23-.28h-3.17v25.12h4v-17.76l13.85,17.48.23.28h3.17v-25.12h0Z"/>
    </g>
    <g>
      <path d="M278.87,204.15l-2.84-6.31h-12.68l-2.84,6.31h-3.42l11.14-24.37h2.95l11.14,24.37h-3.46ZM274.79,195.07l-5.09-11.4-5.09,11.4h10.18Z"/>
      <path d="M270.94,180.16l10.8,23.62h-2.63l-2.84-6.31h-13.16l-2.84,6.31h-2.6l10.8-23.62h2.46M264.03,195.44h11.34l-5.67-12.69-5.67,12.69M271.42,179.41h-3.43l-.2.44-10.8,23.62-.49,1.06h4.25l.2-.44,2.64-5.87h12.19l2.64,5.87.2.44h4.28l-.49-1.06-10.8-23.62-.2-.44h0ZM265.18,194.69l4.51-10.1,4.51,10.1h-9.02Z"/>
    </g>
    <g>
      <path d="M312.34,204.15l-5.39-7.57c-.55.05-1.11.08-1.71.08h-5.97v7.49h-3.25v-24.37h9.22c6.18,0,10.03,3.25,10.03,8.48,0,3.66-1.83,6.35-5.18,7.61l5.9,8.29h-3.65ZM305.17,193.79c4.41,0,6.84-1.96,6.84-5.53s-2.37-5.57-6.84-5.57h-5.9v11.1h5.9Z"/>
      <path d="M305.24,180.16c6.01,0,9.65,3.04,9.65,8.1,0,3.71-1.96,6.31-5.4,7.42l5.77,8.1h-2.73l-5.4-7.59c-.61.07-1.21.1-1.89.1h-6.34v7.49h-2.5v-23.62h8.84M298.9,194.16h6.28c4.72,0,7.22-2.19,7.22-5.9s-2.5-5.94-7.22-5.94h-6.28v11.85M305.24,179.41h-9.59v25.12h4v-7.49h5.59c.53,0,1.03-.02,1.53-.06l5.15,7.24.22.32h4.57l-.84-1.19-5.2-7.31c3.22-1.39,4.97-4.11,4.97-7.78,0-5.46-3.99-8.85-10.4-8.85h0ZM299.65,183.07h5.53c2.95,0,6.47.9,6.47,5.19s-3.52,5.15-6.47,5.15h-5.53v-10.35h0Z"/>
    </g>
    <g>
      <polygon points="336.8 204.15 336.8 195.72 327.06 179.78 330.61 179.78 338.49 192.7 346.38 179.78 349.76 179.78 340.02 195.72 340.02 204.15 336.8 204.15"/>
      <path d="M349.09,180.16l-9.45,15.46v8.17h-2.46v-8.17l-9.45-15.46h2.67l8.1,13.26,8.1-13.26h2.5M350.43,179.41h-4.26l-.22.36-7.46,12.21-7.46-12.21-.22-.36h-4.43l.7,1.14,9.34,15.28v8.71h3.96v-8.71l9.34-15.28.7-1.14h0Z"/>
    </g>
  </g>
</svg>